# xmcd
#
# Track frame offsets: 
#        150
#        17455
#        37178
#        56113
#        76268
#        93878
#        111261
#        128825
#        145369
#        160395
#        179955
#        194166
#        211670
#        237946
#
# Disc length: 4344 seconds
#
# Revision: 3
# Processed by: cddbd v1.5.2PL0 Copyright (c) Steve Scherf et al.
# Submitted via: ExactAudioCopy v1.2
#
DISCID=cb10f60e
DTITLE=Wabi Daněk a Ďáblovo stádo - Wabi a Ďáblovo stádo
DYEAR=2012
DGENRE=Country
TTITLE0=Samota
TTITLE1=Blízko Little Big Hornu
TTITLE2=Laredo (Radůza)
TTITLE3=Až ztichnou bílé skály
TTITLE4=Mrtvej vlak
TTITLE5=A slunce pálí jen
TTITLE6=Kdo mi zatlačí oči
TTITLE7=Ďáblovo stádo
TTITLE8=Hejno vran (Radůza)
TTITLE9=Dawson
TTITLE10=Hudsonské šífy
TTITLE11=Casey Jones
TTITLE12=Tvůj bílý šátek (Aneta Langerová)
TTITLE13=Dokumentární film
EXTD=YEAR: 2012
EXTT0=
EXTT1=
EXTT2=
EXTT3=
EXTT4=
EXTT5=
EXTT6=
EXTT7=
EXTT8=
EXTT9=
EXTT10=
EXTT11=
EXTT12=
EXTT13=
PLAYORDER=
